%
M48
M72
T01C0.0120
T02C0.0130
T03C0.0190
T04C0.0236
T05C0.0433
%
T01
X10615Y6600
X11515Y5950
X12715Y6500
X14215Y6250
X15315Y5900
X16615Y5350
X15865Y4650
X15565Y4300
X15265Y3300
X15065Y1700
X15565Y1700
X16065Y1700
X16565Y1700
X17065Y1700
X17565Y1700
X18065Y1700
X18565Y1700
X19065Y1700
X19565Y1700
X20915Y3350
X21415Y3950
X21265Y4350
X21765Y4350
X22265Y4350
X22765Y4350
X22215Y3700
X20715Y4400
X20715Y4900
X21115Y4900
X21115Y5400
X20715Y5450
X20465Y5750
X20315Y6050
X19015Y6700
X18515Y6700
X18515Y7150
X19015Y7150
X19015Y7650
X18515Y7650
X18015Y7650
X17515Y7650
X17015Y7650
X16515Y7650
X16015Y7650
X15515Y7650
X15015Y7650
X14515Y7650
X12165Y7350
X12141Y4764
X12475Y4784
X12315Y1700
X12815Y1700
X11065Y1700
X10565Y1700
X10065Y1700
X14565Y1700
X21285Y7460
X21785Y7460
X22285Y7460
X22785Y7460
X22785Y7760
X22285Y7760
X21785Y7760
X21285Y7760
T02
X9315Y7050
X9315Y6550
X9315Y6050
X9315Y5550
X8815Y5550
X9635Y4900
X9115Y4700
X9635Y4500
X12215Y3550
X12565Y3650
X11165Y3300
X12115Y2600
X14395Y4580
X14215Y4950
X14765Y5000
X14265Y5350
X11415Y7190
T03
X9775Y5750
X12415Y4100
X18465Y5050
T04
X16315Y4900
T05
X7015Y5573
X7015Y3801
M30
