G75*
%MOIN*%
%OFA0B0*%
%FSLAX24Y24*%
%IPPOS*%
%LPD*%
%AMOC8*
5,1,8,0,0,1.08239X$1,22.5*
%
%ADD10C,0.0000*%
%ADD11R,0.0552X0.0395*%
%ADD12R,0.0440X0.0490*%
%ADD13R,0.0440X0.0420*%
%ADD14R,0.0420X0.0440*%
%ADD15C,0.0098*%
%ADD16R,0.0276X0.0473*%
%ADD17R,0.1640X0.0640*%
%ADD18R,0.0395X0.0552*%
%ADD19R,0.0749X0.0434*%
%ADD20R,0.0631X0.0394*%
%ADD21R,0.0434X0.0591*%
%ADD22R,0.0946X0.0670*%
%ADD23R,0.0540X0.0260*%
%ADD24R,0.0260X0.0540*%
%ADD25R,0.0827X0.0512*%
%ADD26C,0.0473*%
%ADD27R,0.0512X0.0312*%
%ADD28R,0.0217X0.0157*%
D10*
X006315Y002474D02*
X006315Y006900D01*
X006317Y006930D01*
X006322Y006960D01*
X006331Y006989D01*
X006344Y007016D01*
X006359Y007042D01*
X006378Y007066D01*
X006399Y007087D01*
X006423Y007106D01*
X006449Y007121D01*
X006476Y007134D01*
X006505Y007143D01*
X006535Y007148D01*
X006565Y007150D01*
X008636Y007150D01*
X008779Y007195D02*
X009915Y007988D01*
X022963Y007988D01*
X022980Y007986D01*
X022997Y007982D01*
X023013Y007975D01*
X023027Y007965D01*
X023040Y007952D01*
X023050Y007938D01*
X023057Y007922D01*
X023061Y007905D01*
X023063Y007888D01*
X023063Y001486D01*
X023061Y001469D01*
X023057Y001452D01*
X023050Y001436D01*
X023040Y001422D01*
X023027Y001409D01*
X023013Y001399D01*
X022997Y001392D01*
X022980Y001388D01*
X022963Y001386D01*
X009915Y001386D01*
X008740Y002224D01*
X006565Y002224D01*
X006535Y002226D01*
X006505Y002231D01*
X006476Y002240D01*
X006449Y002253D01*
X006423Y002268D01*
X006399Y002287D01*
X006378Y002308D01*
X006359Y002332D01*
X006344Y002358D01*
X006331Y002385D01*
X006322Y002414D01*
X006317Y002444D01*
X006315Y002474D01*
X006798Y003801D02*
X006800Y003830D01*
X006806Y003858D01*
X006815Y003886D01*
X006828Y003912D01*
X006845Y003935D01*
X006864Y003957D01*
X006886Y003976D01*
X006911Y003991D01*
X006937Y004004D01*
X006965Y004012D01*
X006993Y004017D01*
X007022Y004018D01*
X007051Y004015D01*
X007079Y004008D01*
X007106Y003998D01*
X007132Y003984D01*
X007155Y003967D01*
X007176Y003947D01*
X007194Y003924D01*
X007209Y003899D01*
X007220Y003872D01*
X007228Y003844D01*
X007232Y003815D01*
X007232Y003787D01*
X007228Y003758D01*
X007220Y003730D01*
X007209Y003703D01*
X007194Y003678D01*
X007176Y003655D01*
X007155Y003635D01*
X007132Y003618D01*
X007106Y003604D01*
X007079Y003594D01*
X007051Y003587D01*
X007022Y003584D01*
X006993Y003585D01*
X006965Y003590D01*
X006937Y003598D01*
X006911Y003611D01*
X006886Y003626D01*
X006864Y003645D01*
X006845Y003667D01*
X006828Y003690D01*
X006815Y003716D01*
X006806Y003744D01*
X006800Y003772D01*
X006798Y003801D01*
X006798Y005573D02*
X006800Y005602D01*
X006806Y005630D01*
X006815Y005658D01*
X006828Y005684D01*
X006845Y005707D01*
X006864Y005729D01*
X006886Y005748D01*
X006911Y005763D01*
X006937Y005776D01*
X006965Y005784D01*
X006993Y005789D01*
X007022Y005790D01*
X007051Y005787D01*
X007079Y005780D01*
X007106Y005770D01*
X007132Y005756D01*
X007155Y005739D01*
X007176Y005719D01*
X007194Y005696D01*
X007209Y005671D01*
X007220Y005644D01*
X007228Y005616D01*
X007232Y005587D01*
X007232Y005559D01*
X007228Y005530D01*
X007220Y005502D01*
X007209Y005475D01*
X007194Y005450D01*
X007176Y005427D01*
X007155Y005407D01*
X007132Y005390D01*
X007106Y005376D01*
X007079Y005366D01*
X007051Y005359D01*
X007022Y005356D01*
X006993Y005357D01*
X006965Y005362D01*
X006937Y005370D01*
X006911Y005383D01*
X006886Y005398D01*
X006864Y005417D01*
X006845Y005439D01*
X006828Y005462D01*
X006815Y005488D01*
X006806Y005516D01*
X006800Y005544D01*
X006798Y005573D01*
X008636Y007150D02*
X008666Y007152D01*
X008696Y007157D01*
X008725Y007167D01*
X008753Y007179D01*
X008779Y007195D01*
D11*
X011671Y005347D03*
X011671Y004560D03*
X015415Y002904D03*
X016235Y002904D03*
X016235Y002116D03*
X015415Y002116D03*
X018665Y003556D03*
X018745Y002944D03*
X018745Y002156D03*
X018665Y004344D03*
D12*
X019515Y004780D03*
X019865Y005580D03*
X019165Y005580D03*
D13*
X018519Y006140D03*
X017850Y006140D03*
X017909Y007250D03*
X017240Y007250D03*
X012399Y005950D03*
X011730Y005950D03*
D14*
X010935Y006665D03*
X010175Y006665D03*
X010175Y007335D03*
X010935Y007335D03*
X017965Y005485D03*
X017965Y004815D03*
X019565Y004185D03*
X019565Y003515D03*
X019565Y002885D03*
X019565Y002215D03*
X017955Y002215D03*
X017175Y002215D03*
X017175Y002885D03*
X017955Y002885D03*
X011625Y003365D03*
X011625Y004035D03*
X010777Y002844D03*
X009992Y002841D03*
X009992Y002171D03*
X010777Y002174D03*
D15*
X010761Y003254D02*
X010469Y003254D01*
X010469Y003546D01*
X010761Y003546D01*
X010761Y003254D01*
X010761Y003351D02*
X010469Y003351D01*
X010469Y003448D02*
X010761Y003448D01*
X010761Y003545D02*
X010469Y003545D01*
X010161Y003254D02*
X009869Y003254D01*
X009869Y003546D01*
X010161Y003546D01*
X010161Y003254D01*
X010161Y003351D02*
X009869Y003351D01*
X009869Y003448D02*
X010161Y003448D01*
X010161Y003545D02*
X009869Y003545D01*
X008890Y005942D02*
X008890Y006234D01*
X008890Y005942D02*
X008598Y005942D01*
X008598Y006234D01*
X008890Y006234D01*
X008890Y006039D02*
X008598Y006039D01*
X008598Y006136D02*
X008890Y006136D01*
X008890Y006233D02*
X008598Y006233D01*
X008890Y006542D02*
X008890Y006834D01*
X008890Y006542D02*
X008598Y006542D01*
X008598Y006834D01*
X008890Y006834D01*
X008890Y006639D02*
X008598Y006639D01*
X008598Y006736D02*
X008890Y006736D01*
X008890Y006833D02*
X008598Y006833D01*
D16*
X017389Y003671D03*
X017940Y003671D03*
D17*
X022165Y004900D03*
X022165Y006900D03*
D18*
X010908Y005750D03*
X010121Y005750D03*
D19*
X009135Y003860D03*
X009135Y002757D03*
D20*
X020400Y003400D03*
X022329Y003400D03*
X022329Y002100D03*
X020400Y002100D03*
D21*
X010889Y004933D03*
X010141Y004933D03*
X010515Y004067D03*
D22*
X011675Y002400D03*
X014155Y002400D03*
D23*
X013739Y004333D03*
X013739Y004648D03*
X013739Y004963D03*
X013739Y005278D03*
X013739Y005593D03*
X013739Y005908D03*
X013739Y006223D03*
X013739Y006538D03*
X017119Y006538D03*
X017119Y006223D03*
X017119Y005908D03*
X017119Y005593D03*
X017119Y005278D03*
X017119Y004963D03*
X017119Y004648D03*
X017119Y004333D03*
D24*
X016532Y003745D03*
X016217Y003745D03*
X015902Y003745D03*
X015587Y003745D03*
X015272Y003745D03*
X014957Y003745D03*
X014642Y003745D03*
X014327Y003745D03*
X014327Y007125D03*
X014642Y007125D03*
X014957Y007125D03*
X015272Y007125D03*
X015587Y007125D03*
X015902Y007125D03*
X016217Y007125D03*
X016532Y007125D03*
D25*
X008038Y006065D03*
X008038Y005081D03*
X008038Y004293D03*
X008038Y003309D03*
D26*
X007015Y003801D03*
X007015Y005573D03*
D27*
X011853Y006626D03*
X011853Y007000D03*
X011853Y007374D03*
X012877Y007374D03*
X012877Y006626D03*
D28*
X009381Y004902D03*
X009381Y004700D03*
X009381Y004498D03*
X008849Y004498D03*
X008849Y004700D03*
X008849Y004902D03*
M02*
